<svg width="160" height="160" viewBox="0 0 160 160" fill="none" xmlns="http://www.w3.org/2000/svg">
  <rect width="160" height="160" rx="40" fill="transparent"/>
  <ellipse cx="56" cy="102" rx="34" ry="30" fill="#F4A14E"/>
  <ellipse cx="56" cy="100" rx="34" ry="26" fill="#F7C26B"/>
  <path d="M28 98C31 77 43 64 56 64C69 64 81 77 84 98H28Z" fill="#F6C56C"/>
  <path d="M27 99H85C83 118 72 132 56 132C40 132 29 118 27 99Z" fill="#C78143"/>
  <path d="M39 99H73L80 109H32L39 99Z" fill="#7EC55D"/>
  <circle cx="54" cy="92" r="3" fill="#7B4B2C"/>
  <circle cx="63" cy="92" r="3" fill="#7B4B2C"/>
  <path d="M50 98C53 102 64 102 67 98" stroke="#7B4B2C" stroke-width="3" stroke-linecap="round"/>
  <path d="M98 62L131 69C140 71 145 81 143 91L133 128C131 137 122 142 113 140L80 133C71 131 66 122 68 113L78 76C80 67 89 60 98 62Z" fill="#E8A255"/>
  <path d="M95 70L127 77C134 78 139 85 137 92L128 125C127 132 120 136 113 134L81 127C74 126 69 119 71 112L80 79C82 72 88 68 95 70Z" fill="#F7D084"/>
  <circle cx="99" cy="92" r="6" fill="#E7524B"/>
  <circle cx="118" cy="98" r="6" fill="#E7524B"/>
  <circle cx="107" cy="112" r="6" fill="#E7524B"/>
  <path d="M89 131C95 126 101 125 108 128C103 133 97 137 91 140" fill="#4EAA59"/>
  <path d="M102 24C107 16 121 18 122 30C123 42 110 48 102 57C94 48 81 42 82 30C83 18 97 16 102 24Z" fill="#0E1116"/>
  <path d="M28 40L32 31" stroke="#F4C84F" stroke-width="5" stroke-linecap="round"/>
  <path d="M24 51L15 49" stroke="#F4C84F" stroke-width="5" stroke-linecap="round"/>
  <path d="M38 51L45 44" stroke="#F4C84F" stroke-width="5" stroke-linecap="round"/>
  <path d="M135 42L139 33" stroke="#F4C84F" stroke-width="5" stroke-linecap="round"/>
  <path d="M130 53L121 51" stroke="#F4C84F" stroke-width="5" stroke-linecap="round"/>
  <path d="M144 54L151 47" stroke="#F4C84F" stroke-width="5" stroke-linecap="round"/>
</svg>
